<?xml version="1.0"?>
<svg xmlns="http://www.w3.org/2000/svg" xmlns:xlink="http://www.w3.org/1999/xlink" version="1.1" id="Capa_1" x="0px" y="0px" viewBox="0 0 282.456 282.456" style="enable-background:new 0 0 282.456 282.456;" xml:space="preserve" width="512px" height="512px"><g><g>
	<g>
		<path d="M141.228,187.283c33.189,0,61.576-31.133,68.287-74.352c6.391-4.65,10.595-12.135,10.595-20.625    c0-8.73-4.411-16.437-11.112-21.049C201.433,29.828,173.291,0,141.25,0c-32.063,0-60.221,29.822-67.782,71.252    c-6.701,4.612-11.117,12.325-11.117,21.055c0,8.49,4.204,15.98,10.595,20.63C79.658,156.15,108.033,187.283,141.228,187.283z     M87.903,77.621h106.644c8.093,0,14.68,6.587,14.68,14.68c0,8.099-6.587,14.685-14.68,14.685H87.903    c-8.093,0-14.68-6.587-14.68-14.685C73.223,84.208,79.81,77.621,87.903,77.621z M141.228,176.405    c-26.2,0-48.979-24.285-56.398-58.851c1.023,0.125,2.023,0.31,3.073,0.31h106.644c1.055,0,2.056-0.185,3.079-0.31    C190.207,152.114,167.428,176.405,141.228,176.405z M141.25,10.867c25.199,0,47.69,23.143,55.745,56.12    c-0.816-0.082-1.605-0.245-2.442-0.245H87.903c-0.838,0-1.621,0.169-2.437,0.245C93.522,34.016,116.023,10.867,141.25,10.867z" data-original="#010002" class="active-path" data-old_color="#0f7bff" fill="#0f7bff"/>
		<path d="M234.535,136.575h9.056c3.008,0,5.439-2.431,5.439-5.439s-2.431-5.439-5.439-5.439h-13.576    c-2.747,0-5.064,2.045-5.396,4.776c-0.348,2.817-8.942,65.943-72.835,71.719h-19.271c-64.703-5.809-72.35-68.831-72.66-71.632    c-0.299-2.763-2.627-4.863-5.406-4.863H38.865c-3.008,0-5.439,2.431-5.439,5.439s2.431,5.439,5.439,5.439h10.998    c3.225,16.029,17.835,66.558,74.325,75.559v31.28H85.891c-2.089,0-3.987,1.197-4.895,3.073l-6.793,14.082    c-1.915,3.96-1.719,8.121,0.538,11.71c4.058,6.467,14.201,10.176,27.832,10.176h77.316c13.527,0,24.269-3.796,28.713-10.155    c2.382-3.394,2.91-7.381,1.501-11.243l-5.162-14.082c-0.783-2.143-2.823-3.563-5.102-3.563h-41.582V212.39    C215.449,204.177,231.049,152.647,234.535,136.575z M196.037,254.287l3.851,10.508c0.163,0.457,0.174,0.734-0.196,1.267    c-1.556,2.214-8.11,5.515-19.809,5.515h-77.311c-11.319,0-17.34-3.04-18.623-5.086c-0.163-0.267-0.299-0.479,0.049-1.202    l5.314-11.003h40.32h23.192H196.037z M147.38,243.409h-12.314v-30.083c2.078,0.12,4.199,0.19,6.38,0.207c0.277,0,0.544,0,0.81,0    c1.746,0,3.438-0.065,5.118-0.136v30.013H147.38z" data-original="#010002" class="active-path" data-old_color="#0f7bff" fill="#0f7bff"/>
	</g>
</g></g> </svg>
