<?xml version="1.0"?>
<svg xmlns="http://www.w3.org/2000/svg" height="512px" viewBox="0 -27 512 512" width="512px"><g><path d="m247.984375 156.992188c0 2.445312 1.070313 6.554687 8.25 6.554687 1.929687 0 3.746094-.523437 5.40625-1.558594 1.859375-1.15625 2.84375-2.886719 2.84375-4.996093 0-5.855469.324219-15.675782.960937-29.191407.644532-13.625.96875-23.496093.96875-29.332031 0-2.683594-1.023437-4.867188-3.042968-6.488281-1.917969-1.542969-4.320313-2.324219-7.140625-2.324219-2.8125 0-5.199219.753906-7.09375 2.25-2 1.578125-3.015625 3.789062-3.015625 6.5625 0 5.855469.316406 15.726562.933594 29.332031.617187 13.601563.929687 23.425781.929687 29.191407zm0 0" data-original="#000000" class="active-path" data-old_color="#0f7bff" fill="#0f7bff"/><path d="m256.359375 191.210938c2.964844 0 5.539063-1.0625 7.65625-3.160157 2.121094-2.105469 3.195313-4.589843 3.195313-7.386719 0-2.886718-1.078126-5.398437-3.210938-7.460937-2.113281-2.046875-4.6875-3.082031-7.644531-3.082031-3.066407 0-5.675781 1.039062-7.757813 3.09375-2.085937 2.058594-3.144531 4.566406-3.144531 7.449218 0 2.890626 1.058594 5.398438 3.144531 7.453126 2.078125 2.050781 4.6875 3.09375 7.761719 3.09375zm0 0" data-original="#000000" class="active-path" data-old_color="#0f7bff" fill="#0f7bff"/><path d="m256 231.300781c50.453125 0 91.5-41.046875 91.5-91.5s-41.046875-91.5-91.5-91.5-91.5 41.046875-91.5 91.5 41.046875 91.5 91.5 91.5zm0-163c39.425781 0 71.5 32.074219 71.5 71.5 0 39.421875-32.074219 71.5-71.5 71.5s-71.5-32.078125-71.5-71.5c0-39.425781 32.074219-71.5 71.5-71.5zm0 0" data-original="#000000" class="active-path" data-old_color="#0f7bff" fill="#0f7bff"/><path d="m512 194.300781c0-.023437 0-.042969-.003906-.066406 0-.101563 0-.203125 0-.300781 0-.039063-.003906-.074219-.003906-.109375 0-.085938-.003907-.171875-.003907-.257813 0-.039062 0-.082031-.003906-.125 0-.082031-.003906-.160156-.003906-.242187 0-.042969-.003907-.085938-.003907-.128907-.003906-.082031-.003906-.160156-.007812-.238281 0-.042969-.003906-.085937-.003906-.128906-.003906-.085937-.007813-.171875-.011719-.257813 0-.03125-.003906-.066406-.003906-.097656-.003907-.085937-.007813-.175781-.011719-.261718 0-.039063-.003906-.078126-.003906-.117188-.003906-.082031-.011719-.167969-.015625-.253906 0-.035156-.003907-.074219-.003907-.109375-.007812-.085938-.011718-.171875-.015624-.261719-.003907-.035156-.003907-.070312-.007813-.109375-.003906-.09375-.011719-.191406-.019531-.289063-.003906-.054687-.007813-.105468-.007813-.164062-.007812-.085938-.015625-.171875-.019531-.261719-.003906-.070312-.011719-.140625-.019531-.210937-.003907-.046875-.003907-.089844-.007813-.132813-.007812-.09375-.015625-.183593-.027344-.277343 0-.019532-.003906-.042969-.003906-.0625-.007812-.097657-.015625-.191407-.027344-.289063 0-.019531-.003906-.035156-.003906-.054687-1.367187-14.304688-8.375-27.441407-19.691406-36.628907-.132812-.105469-.265625-.210937-.402344-.308593-9.199218-7.332032-20.847656-11.714844-33.5-11.714844h-57.089844v-102.230469c0-21.289063-18.730468-38.609375-41.761718-38.609375h-206.617188c-23.027344 0-41.761718 17.320312-41.761718 38.609375v102.230469h-57.089844c-12.648438 0-24.289063 4.382812-33.488282 11.707031-.140624.101563-.277343.207031-.414062.316406-11.316406 9.191407-18.324219 22.328125-19.691406 36.632813 0 .015625 0 .027344-.003906.042968-.007813.101563-.019532.203126-.027344.308594v.023438c-.011719.101562-.019532.203125-.027344.304687-.003906.046875-.007812.089844-.011719.132813-.003906.070312-.011719.140625-.015625.214844-.007812.085937-.015625.175781-.019531.261718-.003906.054688-.007813.105469-.011719.160156-.007812.097657-.011718.195313-.019531.292969 0 .035157-.003906.070313-.003906.105469-.0078128.085938-.011719.175781-.0156252.261719-.0039063.035156-.0039063.074219-.0078126.109375-.0039062.085937-.0078124.171875-.0117187.253906-.0039063.039062-.0039063.082031-.0078125.121094-.0039062.085937-.0078125.171875-.0117188.257812 0 .035156-.0039062.066406-.0039062.101563-.0039062.085937-.0078125.171875-.0117188.257812 0 .042969 0 .085938-.0039062.128907-.0039062.078124-.0039062.15625-.0078125.234374 0 .042969 0 .085938-.0039063.128907 0 .082031-.0039062.164062-.0039062.242187 0 .042969-.0039062.085938-.0039062.128906 0 .082032-.0039063.167969-.0039063.253907v.109375c-.00390625.101562-.00390625.203125-.00390625.304687v.0625c-.00390625.121094-.00390625.246094-.00390625.367188v209.09375c0 5.914062.957031 11.605469 2.730469 16.933593v.003907c.300781.902343.625 1.792969.96875 2.675781.082031.210938.167969.421875.253906.632812.015625.039063.03125.078126.046875.113282.183594.449218.371094.894531.570312 1.335937.074219.171875.148438.339844.226563.507813 5.003906 11.011718 13.613281 20.050781 24.308594 25.605468.03125.019532.058593.035157.089843.046876l.148438.078124c.0625.03125.125.0625.183594.09375.570312.289063 1.144531.566407 1.722656.835938.007812.003906.015625.007812.023438.011719.015624.007812.042968.019531.070312.03125.675781.3125 1.355469.609375 2.046875.894531.011719.003906.027344.007812.039063.015625 6.296874 2.589844 13.191406 4.019531 20.410156 4.019531h404.320312c7.21875 0 14.113282-1.429687 20.410156-4.019531h.007813c.117187-.050781.230469-.097656.347656-.144531.09375-.042969.191407-.082032.289063-.125.097656-.039063.191406-.082032.289062-.121094.027344-.011719.054688-.027344.082032-.035156.378906-.167969.753906-.335938 1.128906-.507813.003906 0 .007812-.003906.011718-.003906.015626-.007813.03125-.015625.046876-.023437.09375-.042969.191406-.089844.285156-.132813.527344-.25 1.050781-.503906 1.574218-.769531.019532-.011719.039063-.023438.058594-.035156.019532-.007813.035156-.019532.054688-.027344 17.117187-8.800782 28.082031-25.765625 29.164062-44.78125v-.003906c.019532-.304688.035156-.609376.046875-.917969 0-.058594.003907-.121094.007813-.179688 0-.074219.003906-.140625.003906-.214843.003906-.078126.007812-.160157.007812-.242188.003907-.054688.003907-.109375.003907-.160156.003906-.128906.007812-.261719.011719-.390625 0-.046875 0-.097657 0-.148438.003906-.101562.003906-.203125.003906-.308593 0-.039063 0-.078126 0-.117188.003906-.140625.003906-.28125.003906-.425781v-209.09375c0-.121094 0-.246094 0-.367188zm-492 .351563c0-.128906 0-.253906.003906-.382813 0-.054687 0-.113281 0-.167969.003906-.078124.003906-.15625.003906-.230468.003907-.066406.003907-.128906.007813-.195313 0-.070312.003906-.136719.003906-.207031.003907-.066406.007813-.132812.007813-.203125.003906-.066406.007812-.132813.011718-.199219 0-.066406.003907-.132812.007813-.203125.003906-.0625.007813-.125.011719-.191406.003906-.070313.007812-.140625.011718-.210937.007813-.078126.011719-.15625.019532-.234376.007812-.113281.015625-.226562.023437-.335937.003907-.066406.011719-.128906.015625-.195313.007813-.066406.015625-.136718.019532-.207031.007812-.066406.011718-.132812.019531-.199219.007812-.0625.011719-.125.019531-.191406.007812-.070312.015625-.136718.023438-.207031.007812-.0625.011718-.125.019531-.1875.007812-.078125.019531-.152344.027343-.230469.007813-.050781.015626-.101562.019532-.152344.015625-.105468.027344-.210937.042968-.3125.003907-.027343.007813-.050781.011719-.074218.886719-6.300782 3.511719-12.046875 7.378907-16.738282l87.835937 52.980469c.070313.042969.144531.089844.21875.136719l135.070313 81.46875c.0625.039062.128906.078125.195312.113281l66.976562 40.402344c4.730469 2.851563 10.875 1.332031 13.726563-3.398437 2.855469-4.730469 1.332031-10.875-3.394531-13.726563l-52.976563-31.953125 120.871094-72.90625c.082031-.046875.15625-.097656.234375-.148438l87.820312-52.96875c3.867188 4.691407 6.492188 10.4375 7.382813 16.738282 0 .023437.003906.046875.007813.074218.015624.101563.027343.207032.042968.3125.007813.050782.011719.101563.019532.152344.007812.078125.019531.15625.027343.230469.007813.0625.015625.125.019531.1875.011719.070313.015626.136719.023438.207031.007812.0625.011719.128906.019531.191406.007813.070313.015625.136719.019531.207032.007813.066406.011719.128906.019532.195312.007812.074219.011718.148438.019531.222656.007813.105469.015625.207032.023437.3125.003907.078126.011719.15625.015626.234376.003906.070312.007812.140624.011718.210937.003906.0625.007813.128906.011719.191406.003906.070313.007813.136719.011719.203125 0 .066406.003906.132813.007812.199219.003906.070313.003906.136719.007813.203125 0 .070312.003906.136719.007812.207031 0 .066407.003907.128907.003907.195313 0 .074218.003906.152344.003906.230468 0 .054688 0 .113282.003906.167969v.382813.019531 209.085937c0 .136719 0 .273438-.003906.414063v.125c0 .09375-.003906.1875-.003906.28125-.003907.046875-.003907.09375-.003907.144531-.003906.09375-.007812.1875-.011719.28125 0 .039063 0 .082032-.003906.125-.003906.105469-.007812.210938-.011718.3125-.003907.03125-.003907.058594-.007813.085938-.382813 7.460937-3.195313 14.289062-7.660156 19.707031l-82.867188-49.980469c-4.730469-2.855468-10.875-1.332031-13.730469 3.394532-2.851562 4.730468-1.332031 10.875 3.398438 13.730468l73.832031 44.53125c-.136719.027344-.277343.054688-.414062.078125-.117188.023438-.234375.050781-.351563.074219-.042968.007812-.082031.015625-.125.023438-.105468.015624-.214844.03125-.324218.046874-.238282.039063-.480469.078126-.722657.109376-.121093.019531-.234375.039062-.351562.058593-.050781.007813-.101563.015625-.148438.019531-.136719.011719-.269531.023438-.40625.039063l-.191406.019531c-.15625.019532-.3125.039063-.472656.054688-.109375.007812-.214844.023437-.324219.035156-.101562.007812-.203125.015625-.304688.023438-.148437.003906-.296874.011718-.449218.023437l-.554688.035156c-.050781.003907-.105468.007813-.160156.011719-.484375.019531-.972656.03125-1.464844.03125h-404.324218c-.550782 0-1.09375-.015625-1.640626-.042969-.039062 0-.074218 0-.113281-.003906-.019531 0-.042969 0-.0625 0-.121093-.015625-.246093-.023437-.371093-.03125-.351563-.023437-.707032-.046875-1.058594-.082031-.082032-.007813-.160156-.011719-.242188-.019532-.023437-.003906-.050781-.003906-.078125-.007812-.117187-.015625-.238281-.035156-.359375-.046875-.296875-.035156-.597656-.070313-.894531-.113281-.09375-.011719-.1875-.023438-.28125-.035156-.058594-.011719-.117187-.019532-.171875-.027344-.09375-.019532-.191406-.035156-.285156-.050782-.269532-.046874-.53125-.09375-.796875-.144531-.09375-.019531-.1875-.035156-.28125-.050781-.105469-.019531-.210938-.042969-.316407-.0625-.0625-.015625-.125-.03125-.1875-.042969-.226562-.050781-.449218-.101562-.6875-.160156-.097656-.023437-.191406-.042969-.285156-.0625-.214844-.050781-.429687-.105469-.640625-.164063l-.417969-.121093c-.085937-.023438-.175781-.046875-.265624-.070313-8.9375-2.601562-16.363282-8.796875-20.589844-16.914062-.0625-.117188-.121094-.234375-.179688-.351563-.128906-.25-.25-.5-.371094-.75-2.085937-4.390625-3.257812-9.300781-3.257812-14.480469v-209.085937c0-.007813 0-.015625 0-.019531zm438.160156-33.8125c2.316406 0 4.578125.234375 6.765625.679687l-63.855469 38.515625v-39.195312zm-327.230468-122.230469c0-10.261719 9.761718-18.609375 21.761718-18.609375h206.617188c12 0 21.761718 8.347656 21.761718 18.609375v173.488281l-125.070312 75.4375-125.070312-75.4375zm-20 122.230469v39.195312l-63.855469-38.515625c2.1875-.445312 4.449219-.679687 6.765625-.679687zm0 0" data-original="#000000" class="active-path" data-old_color="#0f7bff" fill="#0f7bff"/><path d="m360.691406 372.347656c5.523438 0 10-4.476562 10-10 0-5.519531-4.476562-10-10-10h-.023437c-5.519531 0-9.988281 4.480469-9.988281 10 0 5.523438 4.492187 10 10.011718 10zm0 0" data-original="#000000" class="active-path" data-old_color="#0f7bff" fill="#0f7bff"/></g> </svg>
